<?xml version="1.0" standalone="no"?>
<!DOCTYPE svg PUBLIC "-//W3C//DTD SVG 20010904//EN"
 "http://www.w3.org/TR/2001/REC-SVG-20010904/DTD/svg10.dtd">
<svg version="1.0" xmlns="http://www.w3.org/2000/svg"
 width="400.000000pt" height="400.000000pt" viewBox="0 0 400.000000 400.000000"
 preserveAspectRatio="xMidYMid meet">
<metadata>
Created by potrace 1.11, written by Peter Selinger 2001-2013
</metadata>
<g transform="translate(0.000000,400.000000) scale(0.100000,-0.100000)"
fill="#000000" stroke="none">
<path d="M1783 3954 c5 -5 41 -12 80 -16 102 -10 251 -49 319 -82 17 -9 35
-16 40 -16 5 0 33 -16 63 -35 72 -46 168 -144 221 -225 57 -88 134 -247 134
-276 0 -13 4 -24 9 -24 4 0 11 -15 15 -32 3 -18 11 -55 17 -83 34 -160 48
-322 54 -650 4 -231 -6 -431 -24 -478 -5 -12 -24 -76 -41 -142 -32 -118 -66
-202 -115 -280 -14 -22 -33 -56 -42 -75 -78 -159 -245 -334 -388 -404 -83 -42
-182 -75 -246 -83 -77 -9 -342 96 -420 167 -9 8 -36 29 -60 45 -24 17 -76 61
-116 99 -63 60 -81 86 -136 195 -35 69 -78 171 -96 226 -18 55 -50 154 -71
220 -41 127 -43 133 -60 253 -6 42 -16 97 -21 122 -41 184 -51 445 -28 750 16
206 67 352 157 449 146 156 216 204 427 292 44 18 84 37 90 41 5 4 27 8 50 8
22 1 63 7 90 15 l50 14 -59 0 c-71 1 -154 -19 -241 -60 -36 -16 -84 -36 -106
-44 -50 -18 -192 -116 -239 -165 -70 -73 -163 -202 -182 -253 -28 -71 -55
-189 -63 -267 -3 -36 -9 -83 -12 -105 -17 -134 -21 -225 -15 -340 12 -231 11
-244 -25 -295 -23 -31 -34 -61 -38 -95 -3 -27 -11 -73 -17 -102 -21 -98 21
-273 86 -360 102 -136 99 -133 169 -168 31 -15 60 -32 65 -38 5 -7 33 -66 63
-131 53 -120 78 -152 208 -270 35 -32 51 -79 51 -153 l0 -69 -67 -66 c-38 -36
-95 -82 -128 -103 -98 -62 -175 -123 -273 -219 -144 -141 -175 -199 -197 -371
-4 -27 -11 -54 -15 -60 -9 -12 -70 -189 -70 -204 0 -6 9 -11 19 -11 14 0 21
10 26 33 6 25 28 76 52 116 1 2 19 -13 39 -33 21 -21 47 -36 61 -36 20 0 23
-5 23 -40 0 -30 4 -40 16 -40 13 0 15 7 11 33 -6 41 -3 47 47 72 22 11 58 39
80 62 23 23 62 57 88 75 25 18 61 55 80 82 19 28 39 51 44 53 5 2 16 -14 23
-34 18 -50 26 -59 77 -84 l43 -22 -16 -31 c-9 -17 -20 -67 -24 -111 -7 -79 0
-123 11 -75 5 21 12 25 39 23 18 0 43 -11 55 -22 28 -26 42 -27 55 -2 6 10 22
22 37 25 68 17 117 85 95 132 -16 36 -14 58 9 71 27 17 43 86 35 149 -7 57 -7
57 58 68 68 12 287 101 287 116 0 9 55 30 76 30 17 0 7 -35 -17 -56 -10 -9
-19 -23 -19 -30 0 -7 -4 -14 -9 -16 -9 -3 -20 -21 -82 -129 -31 -52 -36 -56
-93 -73 -97 -29 -105 -33 -121 -72 -17 -41 -19 -54 -7 -54 8 0 32 48 32 65 0
6 29 16 65 23 77 14 105 15 105 3 0 -20 50 -68 92 -88 88 -43 104 -46 170 -34
35 6 85 12 113 13 41 3 50 0 53 -15 2 -11 -5 -25 -16 -33 -13 -9 -18 -22 -16
-41 2 -15 1 -22 -2 -15 -3 6 -10 10 -15 6 -12 -7 -12 -64 1 -64 6 0 10 5 10
11 0 8 4 8 14 -1 8 -6 25 -10 38 -8 28 4 37 48 14 71 -19 19 -20 53 -3 86 12
23 29 31 152 66 33 10 85 26 115 36 30 10 83 25 118 34 34 8 89 22 122 30 33
8 97 16 143 17 74 3 89 0 138 -25 62 -32 96 -61 122 -103 24 -39 60 -120 77
-171 l13 -43 89 0 c48 0 88 4 88 8 0 12 -137 172 -184 215 -45 42 -133 104
-186 133 -49 26 -197 23 -300 -6 -41 -11 -95 -25 -120 -30 -25 -4 -58 -14 -75
-20 -29 -11 -48 -17 -215 -61 -148 -40 -196 -48 -276 -49 -68 0 -89 4 -130 26
-64 34 -91 60 -104 100 -10 30 -8 40 21 91 18 32 38 70 46 84 7 15 20 32 28
39 8 7 15 17 15 22 0 5 14 29 30 53 28 40 37 65 25 65 -7 0 -157 -80 -170 -90
-6 -5 -28 -15 -50 -23 -203 -75 -210 -77 -285 -77 -89 1 -172 30 -204 73 -19
26 -19 28 -3 44 16 16 18 16 31 -2 14 -19 15 -19 22 -1 10 26 -4 274 -21 381
-16 99 -20 215 -6 215 4 0 19 -8 32 -18 50 -38 206 -132 219 -132 7 0 34 -10
59 -22 61 -30 121 -29 201 3 36 15 86 34 112 43 54 20 143 85 243 180 39 36
73 66 76 66 4 0 9 -19 12 -42 3 -24 10 -72 16 -107 10 -67 4 -91 -40 -146 -29
-37 -62 -100 -44 -85 19 15 135 168 135 177 0 4 -6 14 -14 22 -8 9 -16 27 -18
41 -3 24 -2 25 55 22 73 -3 120 -26 180 -91 47 -50 60 -75 32 -65 -16 6 -85
-42 -85 -60 -1 -6 -13 -20 -27 -31 -49 -38 -108 -106 -133 -154 -14 -27 -50
-70 -80 -97 -133 -116 -166 -165 -190 -279 -8 -33 -17 -65 -22 -72 -20 -26 22
-21 177 21 257 71 327 92 373 112 51 23 71 41 32 30 -11 -3 -29 -9 -41 -12
-18 -5 -20 -2 -19 23 5 76 0 104 -27 132 -45 45 -68 53 -154 50 -43 -2 -79 0
-79 4 -2 24 139 172 173 183 12 3 29 12 37 19 8 6 52 20 97 30 72 16 90 17
140 6 78 -17 216 -91 200 -107 -3 -3 -21 -1 -38 5 -22 8 -36 8 -43 1 -5 -5
-20 -10 -33 -10 -29 0 -30 -16 -2 -25 31 -10 5 -24 -46 -26 -26 -2 -16 -4 30
-9 39 -3 82 -2 97 3 71 23 259 -95 333 -208 36 -56 105 -174 105 -180 0 -3 11
-28 24 -57 50 -110 69 -159 64 -164 -6 -5 -18 9 -101 121 -29 39 -54 72 -57
75 -3 3 -18 20 -33 39 -40 48 -117 108 -170 131 -25 11 -74 23 -109 25 l-63 6
78 -33 c92 -39 179 -105 262 -201 33 -37 65 -74 71 -80 23 -26 124 -179 140
-212 13 -28 22 -35 45 -35 38 0 38 15 -4 127 -19 48 -40 111 -47 138 -16 62
-27 84 -104 214 -73 125 -128 188 -210 243 -34 23 -83 64 -111 91 -70 71 -144
127 -165 127 -10 0 -21 4 -24 9 -3 4 -34 14 -68 20 -85 17 -107 29 -128 71
-41 78 -131 153 -217 180 -99 31 -103 34 -103 88 0 30 8 63 23 90 35 67 137
231 147 237 18 11 71 139 87 211 16 72 18 76 64 107 77 53 132 123 169 217 31
78 34 95 38 219 5 154 -14 270 -54 333 -24 38 -40 45 -104 50 -42 4 -44 10
-60 158 -23 215 -84 432 -158 560 -68 118 -145 220 -208 276 -78 69 -125 95
-269 149 -91 34 -111 38 -225 43 -69 2 -121 1 -117 -4z m1071 -1225 c32 -15
74 -100 87 -176 10 -64 4 -220 -13 -298 -20 -92 -105 -217 -169 -251 -40 -20
-47 -1 -20 63 23 55 44 226 40 329 -2 51 3 83 19 122 34 86 51 99 71 56 14
-31 37 -26 33 7 -5 36 -48 72 -72 59 -10 -5 -22 -19 -25 -30 -3 -11 -13 -20
-21 -20 -11 0 -14 15 -14 59 0 51 3 62 22 75 27 19 30 19 62 5z m-1990 -405
c18 -82 15 -100 -13 -85 -32 18 -43 -3 -45 -82 -1 -49 3 -80 12 -88 10 -10 12
1 12 59 0 40 3 72 8 72 4 0 19 -11 33 -24 19 -18 31 -46 44 -103 25 -110 61
-242 76 -280 16 -40 6 -52 -29 -32 -38 21 -97 101 -145 199 l-42 85 0 130 c0
116 3 135 23 178 13 26 29 47 36 47 8 0 20 -30 30 -76z m572 -1360 c4 -15 1
-36 -7 -50 -10 -20 -10 -29 -1 -45 11 -16 9 -18 -10 -16 -17 1 -30 -12 -60
-63 -21 -36 -43 -74 -48 -85 -6 -11 -14 -27 -20 -35 -25 -39 -87 -147 -92
-161 -4 -10 -36 -59 -71 -110 -36 -52 -72 -110 -80 -129 -18 -41 -77 -104
-115 -124 -79 -40 -122 -24 -162 61 -33 70 -24 143 31 251 32 64 58 98 112
147 38 36 74 65 80 65 5 0 31 19 58 43 53 47 53 48 128 100 29 21 57 35 62 30
4 -4 -20 -52 -54 -105 -49 -77 -67 -97 -86 -97 -16 -1 -51 -29 -111 -88 -68
-69 -95 -105 -124 -164 -56 -118 -46 -189 26 -189 31 0 68 24 68 43 0 5 9 22
20 37 11 16 27 46 34 68 30 85 160 332 178 340 5 2 8 8 8 13 0 5 17 33 37 62
20 28 59 85 86 125 46 67 80 102 99 102 4 0 11 -12 14 -26z m14 -222 c0 -5
-13 -20 -28 -33 -15 -14 -40 -41 -54 -59 -15 -19 -30 -31 -33 -28 -7 7 -1 16
53 76 17 20 32 40 32 44 0 4 7 8 15 8 8 0 15 -4 15 -8z m1106 -123 c19 -21 18
-21 -5 -40 -28 -23 -74 -25 -91 -4 -9 11 -7 19 14 40 31 30 57 32 82 4z
m-1170 -82 c-5 -21 1 -27 59 -52 36 -15 65 -31 65 -34 0 -4 -16 -31 -35 -61
-19 -30 -35 -66 -35 -80 0 -55 -46 -65 -115 -25 -35 21 -45 33 -54 69 -14 56
-1 95 52 159 42 51 73 63 63 24z m-338 4 c30 -18 -18 -98 -51 -85 -24 9 -28
32 -12 65 15 29 38 36 63 20z m509 -127 c7 -18 -12 -64 -27 -64 -5 0 -10 18
-10 40 0 29 4 40 15 40 9 0 18 -7 22 -16z m67 -25 c-10 -16 -24 -9 -24 12 0
18 2 19 15 9 8 -7 12 -16 9 -21z m-37 -105 c-17 -61 -17 -68 -2 -91 52 -79
-88 -168 -185 -118 -26 14 -50 42 -50 60 0 4 24 30 53 59 35 35 56 65 62 92
10 37 12 39 48 37 30 -2 40 2 53 23 12 18 20 22 28 14 7 -7 5 -30 -7 -76z"/>
<path d="M1453 143 c-14 -5 -18 -33 -5 -33 10 0 32 22 32 32 0 9 -8 9 -27 1z"/>
<path d="M1883 2787 c-3 -5 -2 -11 1 -15 4 -3 104 -7 224 -9 119 -2 226 -4
237 -6 12 -1 20 4 20 13 0 10 -15 17 -45 22 -60 10 -431 5 -437 -5z"/>
<path d="M1303 2704 c-164 -84 -203 -108 -191 -119 6 -7 397 187 398 198 1 20
-54 -1 -207 -79z"/>
<path d="M2001 2621 c-52 -14 -78 -31 -96 -65 -15 -29 -15 -34 4 -88 27 -78
77 -130 150 -157 72 -26 122 -27 194 -2 95 33 168 105 183 179 9 43 -27 96
-81 118 -46 19 -296 29 -354 15z m266 -31 c123 -16 169 -56 142 -122 -18 -45
-86 -104 -140 -124 -69 -24 -176 -21 -235 8 -94 45 -151 180 -91 218 43 27
194 37 324 20z"/>
<path d="M2117 2523 c-15 -14 -7 -43 12 -43 23 0 34 23 18 39 -13 13 -21 14
-30 4z"/>
<path d="M1328 2519 c-63 -9 -142 -45 -172 -78 -26 -28 -16 -27 55 9 112 57
314 65 370 14 35 -31 15 -99 -43 -149 -34 -29 -116 -63 -168 -71 -87 -11 -217
55 -239 121 l-9 30 -1 -31 c-1 -43 61 -104 135 -132 68 -27 93 -27 164 -3 75
25 119 53 155 98 26 32 30 47 30 96 0 66 -6 73 -85 94 -50 14 -107 15 -192 2z"/>
<path d="M1389 2404 c-10 -13 -10 -17 2 -25 32 -20 61 0 39 26 -16 19 -24 19
-41 -1z"/>
<path d="M1766 2319 c4 -6 10 -46 14 -88 l7 -76 2 81 c1 66 -2 83 -15 88 -9 4
-13 2 -8 -5z"/>
<path d="M1783 2095 c0 -27 2 -38 4 -22 2 15 2 37 0 50 -2 12 -4 0 -4 -28z"/>
<path d="M1767 1944 c-16 -16 -7 -63 15 -78 22 -16 58 -22 58 -10 0 3 -10 19
-22 34 -13 15 -28 35 -33 44 -6 10 -13 14 -18 10z"/>
<path d="M1846 1477 c-83 -20 -69 -36 26 -30 77 5 110 15 96 28 -12 12 -76 13
-122 2z"/>
<path d="M2273 852 c-29 -40 -47 -76 -34 -67 15 8 64 86 59 91 -3 2 -13 -9
-25 -24z"/>
<path d="M2865 720 c-15 -6 -7 -9 29 -9 27 -1 47 1 45 3 -11 9 -56 13 -74 6z"/>
<path d="M2788 513 c7 -3 16 -2 19 1 4 3 -2 6 -13 5 -11 0 -14 -3 -6 -6z"/>
<path d="M1702 120 c0 -14 2 -19 5 -12 2 6 2 18 0 25 -3 6 -5 1 -5 -13z"/>
<path d="M1687 83 c-4 -3 -7 -22 -7 -41 0 -44 11 -35 15 12 4 37 3 40 -8 29z"/>
<path d="M902 55 c-14 -31 -15 -45 -3 -45 7 0 31 51 31 66 0 14 -19 -1 -28
-21z"/>
</g>
</svg>
